<svg width="373" height="92" viewBox="0 0 373 92" fill="none" xmlns="http://www.w3.org/2000/svg">
<path d="M16.4084 14.8023C19.3204 14.8023 21.6724 15.1063 23.4644 15.7143C25.2884 16.2903 26.6164 17.2983 27.4484 18.7383C28.3124 20.1463 28.7444 22.1143 28.7444 24.6423C28.7444 26.1783 28.5364 27.5383 28.1204 28.7223C27.7364 29.8743 27.0804 30.8023 26.1524 31.5063C25.2244 32.2103 23.9604 32.6583 22.3604 32.8503V33.0903C22.9364 33.1863 23.5284 33.4103 24.1364 33.7623C24.7764 34.1143 25.3684 34.6423 25.9124 35.3463C26.4564 36.0183 26.8564 36.9303 27.1124 38.0823L29.9924 48.4023H22.2644L19.7204 38.3223C19.4324 37.2343 19.0004 36.4823 18.4244 36.0663C17.8804 35.6503 17.1124 35.4423 16.1204 35.4423C13.9444 35.4423 12.1044 35.4423 10.6004 35.4423C9.12837 35.4103 7.88037 35.3783 6.85637 35.3463C5.86437 35.3143 4.96837 35.2823 4.16837 35.2503L4.31237 29.9223H16.2644C17.5444 29.9223 18.5524 29.7943 19.2884 29.5383C20.0564 29.2503 20.5844 28.7543 20.8724 28.0503C21.1924 27.3463 21.3524 26.3703 21.3524 25.1223C21.3524 23.8423 21.1924 22.8663 20.8724 22.1943C20.5844 21.4903 20.0564 21.0103 19.2884 20.7543C18.5524 20.4663 17.5444 20.3223 16.2644 20.3223C13.2564 20.3223 10.7124 20.3383 8.63237 20.3703C6.55237 20.4023 5.12837 20.4503 4.36037 20.5143L3.64037 15.2823C4.98437 15.1223 6.24837 15.0103 7.43237 14.9463C8.61637 14.8823 9.91237 14.8503 11.3204 14.8503C12.7284 14.8183 14.4244 14.8023 16.4084 14.8023ZM10.8884 15.2823V48.4023H3.64037V15.2823H10.8884ZM50.5585 15.2823C51.1665 15.2823 51.6945 15.4583 52.1425 15.8103C52.6225 16.1623 52.9425 16.6263 53.1025 17.2023L62.7025 48.4023H55.2145L48.4465 24.0663C48.3185 23.5223 48.1905 22.9783 48.0625 22.4343C47.9345 21.8583 47.8225 21.3143 47.7265 20.8023H46.4305C46.3345 21.3143 46.2225 21.8583 46.0945 22.4343C45.9985 22.9783 45.8705 23.5223 45.7105 24.0663L38.9425 48.4023H31.4065L41.0545 17.2023C41.2145 16.6263 41.5185 16.1623 41.9665 15.8103C42.4465 15.4583 42.9905 15.2823 43.5985 15.2823H50.5585ZM55.6465 34.1463V39.6663H38.4625V34.1463H55.6465ZM100.014 15.2823C101.742 15.2823 102.638 16.1783 102.702 17.9703L103.95 48.4023H97.1819L96.0779 20.9463H95.2139L89.8859 41.5863C89.5979 43.1223 88.6379 43.8903 87.0059 43.8903H82.3979C80.7659 43.8903 79.7739 43.1223 79.4219 41.5863L74.0939 20.9463H73.2779L72.2699 48.4023H65.4539L66.7019 17.9703C66.7659 16.1783 67.6779 15.2823 69.4379 15.2823H76.3019C77.8699 15.2823 78.8299 16.0663 79.1819 17.6343L83.4539 34.2903C83.6459 35.0583 83.8059 35.8423 83.9339 36.6423C84.0619 37.4103 84.2059 38.1943 84.3659 38.9943H84.9899C85.1499 38.1943 85.2939 37.4103 85.4219 36.6423C85.5819 35.8423 85.7419 35.0423 85.9019 34.2423L90.1259 17.6343C90.4459 16.0663 91.4059 15.2823 93.0059 15.2823H100.014ZM123.2 14.6103C125.824 14.6103 128.048 14.8983 129.872 15.4743C131.696 16.0183 133.152 16.9463 134.24 18.2583C135.36 19.5383 136.176 21.2983 136.688 23.5383C137.2 25.7463 137.456 28.5143 137.456 31.8423C137.456 35.1703 137.2 37.9543 136.688 40.1943C136.176 42.4023 135.36 44.1623 134.24 45.4743C133.152 46.7543 131.696 47.6823 129.872 48.2583C128.048 48.8023 125.824 49.0743 123.2 49.0743C120.576 49.0743 118.352 48.8023 116.528 48.2583C114.704 47.6823 113.232 46.7543 112.112 45.4743C110.992 44.1623 110.176 42.4023 109.664 40.1943C109.152 37.9543 108.896 35.1703 108.896 31.8423C108.896 28.5143 109.152 25.7463 109.664 23.5383C110.176 21.2983 110.992 19.5383 112.112 18.2583C113.232 16.9463 114.704 16.0183 116.528 15.4743C118.352 14.8983 120.576 14.6103 123.2 14.6103ZM123.2 20.4183C121.504 20.4183 120.176 20.7543 119.216 21.4263C118.288 22.0983 117.616 23.2663 117.2 24.9303C116.816 26.5623 116.624 28.8663 116.624 31.8423C116.624 34.7863 116.816 37.0903 117.2 38.7543C117.616 40.4183 118.288 41.5863 119.216 42.2583C120.176 42.9303 121.504 43.2663 123.2 43.2663C124.864 43.2663 126.16 42.9303 127.088 42.2583C128.048 41.5863 128.72 40.4183 129.104 38.7543C129.52 37.0903 129.728 34.7863 129.728 31.8423C129.728 28.8663 129.52 26.5623 129.104 24.9303C128.72 23.2663 128.048 22.0983 127.088 21.4263C126.16 20.7543 124.864 20.4183 123.2 20.4183ZM153.991 14.6583C155.623 14.6583 157.399 14.7543 159.319 14.9463C161.239 15.1063 163.111 15.4583 164.935 16.0023L164.455 20.8503C163.047 20.8183 161.399 20.7863 159.511 20.7543C157.623 20.7223 155.767 20.7063 153.943 20.7063C153.047 20.7063 152.279 20.7383 151.639 20.8023C151.031 20.8343 150.535 20.9623 150.151 21.1863C149.767 21.3783 149.495 21.6823 149.335 22.0983C149.175 22.5143 149.095 23.0903 149.095 23.8263C149.095 24.9463 149.351 25.7623 149.863 26.2743C150.407 26.7863 151.319 27.2503 152.599 27.6663L158.983 29.7303C161.639 30.6263 163.479 31.8423 164.503 33.3783C165.527 34.9143 166.039 36.9303 166.039 39.4263C166.039 41.3143 165.815 42.8823 165.367 44.1303C164.919 45.3783 164.215 46.3543 163.255 47.0583C162.295 47.7623 161.031 48.2583 159.463 48.5463C157.895 48.8663 155.975 49.0263 153.703 49.0263C152.615 49.0263 151.063 48.9463 149.047 48.7863C147.031 48.6583 144.727 48.3063 142.135 47.7303L142.615 42.5463C144.503 42.5783 146.135 42.6263 147.511 42.6903C148.919 42.7223 150.119 42.7543 151.111 42.7863C152.103 42.7863 152.967 42.7863 153.703 42.7863C154.983 42.7863 155.975 42.7063 156.679 42.5463C157.415 42.3863 157.927 42.0663 158.215 41.5863C158.503 41.1063 158.647 40.4183 158.647 39.5223C158.647 38.7543 158.535 38.1463 158.311 37.6983C158.119 37.2183 157.783 36.8503 157.303 36.5943C156.855 36.3063 156.231 36.0503 155.431 35.8263L148.711 33.5223C146.183 32.5943 144.391 31.3783 143.335 29.8743C142.279 28.3703 141.751 26.3863 141.751 23.9223C141.751 22.0023 141.975 20.4503 142.423 19.2663C142.903 18.0503 143.623 17.1063 144.583 16.4343C145.575 15.7623 146.839 15.2983 148.375 15.0423C149.943 14.7863 151.815 14.6583 153.991 14.6583ZM192.475 14.6583C194.107 14.6583 195.883 14.7543 197.803 14.9463C199.723 15.1063 201.595 15.4583 203.419 16.0023L202.939 20.8503C201.531 20.8183 199.883 20.7863 197.995 20.7543C196.107 20.7223 194.251 20.7063 192.427 20.7063C191.531 20.7063 190.763 20.7383 190.123 20.8023C189.515 20.8343 189.019 20.9623 188.635 21.1863C188.251 21.3783 187.979 21.6823 187.819 22.0983C187.659 22.5143 187.579 23.0903 187.579 23.8263C187.579 24.9463 187.835 25.7623 188.347 26.2743C188.891 26.7863 189.803 27.2503 191.083 27.6663L197.467 29.7303C200.123 30.6263 201.963 31.8423 202.987 33.3783C204.011 34.9143 204.523 36.9303 204.523 39.4263C204.523 41.3143 204.299 42.8823 203.851 44.1303C203.403 45.3783 202.699 46.3543 201.739 47.0583C200.779 47.7623 199.515 48.2583 197.947 48.5463C196.379 48.8663 194.459 49.0263 192.187 49.0263C191.099 49.0263 189.547 48.9463 187.531 48.7863C185.515 48.6583 183.211 48.3063 180.619 47.7303L181.099 42.5463C182.987 42.5783 184.619 42.6263 185.995 42.6903C187.403 42.7223 188.603 42.7543 189.595 42.7863C190.587 42.7863 191.451 42.7863 192.187 42.7863C193.467 42.7863 194.459 42.7063 195.163 42.5463C195.899 42.3863 196.411 42.0663 196.699 41.5863C196.987 41.1063 197.131 40.4183 197.131 39.5223C197.131 38.7543 197.019 38.1463 196.795 37.6983C196.603 37.2183 196.267 36.8503 195.787 36.5943C195.339 36.3063 194.715 36.0503 193.915 35.8263L187.195 33.5223C184.667 32.5943 182.875 31.3783 181.819 29.8743C180.763 28.3703 180.235 26.3863 180.235 23.9223C180.235 22.0023 180.459 20.4503 180.907 19.2663C181.387 18.0503 182.107 17.1063 183.067 16.4343C184.059 15.7623 185.323 15.2983 186.859 15.0423C188.427 14.7863 190.299 14.6583 192.475 14.6583ZM222.664 14.8023C225.288 14.8023 227.496 15.0903 229.288 15.6663C231.112 16.2103 232.568 17.1223 233.656 18.4023C234.776 19.6823 235.592 21.4263 236.104 23.6343C236.616 25.8103 236.872 28.5463 236.872 31.8423C236.872 35.1383 236.616 37.8903 236.104 40.0983C235.592 42.2743 234.776 44.0023 233.656 45.2823C232.568 46.5623 231.112 47.4903 229.288 48.0663C227.496 48.6103 225.288 48.8823 222.664 48.8823C220.136 48.8823 217.816 48.8343 215.704 48.7383C213.592 48.6423 211.576 48.5303 209.656 48.4023L212.728 42.9783C213.944 43.0423 215.384 43.1063 217.048 43.1703C218.744 43.2023 220.616 43.2183 222.664 43.2183C224.296 43.2183 225.576 42.8983 226.504 42.2583C227.464 41.5863 228.136 40.4183 228.52 38.7543C228.936 37.0903 229.144 34.7863 229.144 31.8423C229.144 28.8983 228.936 26.5943 228.52 24.9303C228.136 23.2663 227.464 22.0983 226.504 21.4263C225.576 20.7543 224.296 20.4183 222.664 20.4183C220.712 20.4183 218.968 20.4343 217.432 20.4663C215.896 20.4663 214.392 20.4663 212.92 20.4663L209.656 15.2823C211.576 15.1543 213.576 15.0423 215.656 14.9463C217.768 14.8503 220.104 14.8023 222.664 14.8023ZM217 15.2823V48.4023H209.656V15.2823H217Z" fill="#F0F8FF"/>
<path d="M5.20037 80.8583H7.88837C8.41637 80.8583 8.79237 80.7543 9.01637 80.5463C9.25637 80.3223 9.37637 79.9623 9.37637 79.4663V78.0743C9.37637 77.5783 9.25637 77.2263 9.01637 77.0183C8.77637 76.8103 8.38437 76.7063 7.84037 76.7063H5.20037C5.02437 76.7063 4.93637 76.7943 4.93637 76.9703V80.5943C4.93637 80.7703 5.02437 80.8583 5.20037 80.8583ZM5.20037 74.2343H7.64837C8.16037 74.2343 8.53637 74.1303 8.77637 73.9223C9.01637 73.6983 9.13637 73.3383 9.13637 72.8423V71.9063C9.13637 71.4103 9.01637 71.0583 8.77637 70.8503C8.55237 70.6263 8.18437 70.5143 7.67237 70.5143H5.20037C5.02437 70.5143 4.93637 70.6023 4.93637 70.7783V73.9703C4.93637 74.1463 5.02437 74.2343 5.20037 74.2343ZM1.88837 82.8983V68.4743C1.88837 68.1383 2.05637 67.9703 2.39237 67.9703H8.15237C9.41637 67.9703 10.3924 68.3063 11.0804 68.9783C11.7684 69.6503 12.1124 70.6103 12.1124 71.8583V72.8423C12.1124 74.2023 11.4804 75.0823 10.2164 75.4823C10.8564 75.5783 11.3684 75.8423 11.7524 76.2743C12.1364 76.6903 12.3284 77.2903 12.3284 78.0743V79.5143C12.3284 80.7623 11.9844 81.7223 11.2964 82.3943C10.6084 83.0663 9.64037 83.4023 8.39237 83.4023H2.39237C2.05637 83.4023 1.88837 83.2343 1.88837 82.8983ZM17.6249 83.4023H15.5849C15.2489 83.4023 15.0809 83.2343 15.0809 82.8983V67.0343C15.0809 66.6983 15.2489 66.5303 15.5849 66.5303H17.6249C17.9609 66.5303 18.1289 66.6983 18.1289 67.0343V82.8983C18.1289 83.2343 17.9609 83.4023 17.6249 83.4023ZM26.7466 83.4023H24.6106C23.3466 83.4023 22.3706 83.0663 21.6826 82.3943C20.9946 81.7223 20.6506 80.7543 20.6506 79.4903V75.0743C20.6506 73.8103 20.9946 72.8423 21.6826 72.1703C22.3706 71.4983 23.3466 71.1623 24.6106 71.1623H26.7466C27.9946 71.1623 28.9626 71.5063 29.6506 72.1943C30.3546 72.8663 30.7066 73.8263 30.7066 75.0743V79.4903C30.7066 80.7383 30.3546 81.7063 29.6506 82.3943C28.9626 83.0663 27.9946 83.4023 26.7466 83.4023ZM25.0666 80.7863H26.2906C26.8026 80.7863 27.1626 80.6823 27.3706 80.4743C27.5946 80.2663 27.7066 79.9063 27.7066 79.3943V75.1703C27.7066 74.6583 27.5946 74.2983 27.3706 74.0903C27.1626 73.8823 26.8026 73.7783 26.2906 73.7783H25.0666C24.5546 73.7783 24.1946 73.8823 23.9866 74.0903C23.7786 74.2983 23.6746 74.6583 23.6746 75.1703V79.3943C23.6746 79.9063 23.7786 80.2663 23.9866 80.4743C24.1946 80.6823 24.5546 80.7863 25.0666 80.7863ZM37.4215 82.8503H36.6295C35.3975 82.8503 34.4615 82.5143 33.8215 81.8423C33.1975 81.1703 32.8855 80.2023 32.8855 78.9383V75.0743C32.8855 73.8103 33.2295 72.8423 33.9175 72.1703C34.6055 71.4983 35.5815 71.1623 36.8455 71.1623H42.3895C42.7415 71.1623 42.9175 71.3303 42.9175 71.6663V83.4983C42.9175 84.7463 42.5655 85.7063 41.8615 86.3783C41.1735 87.0503 40.2055 87.3863 38.9575 87.3863H34.3495C34.1575 87.3863 34.0215 87.3463 33.9415 87.2663C33.8775 87.2023 33.8455 87.0823 33.8455 86.9063V85.2503C33.8455 84.9143 34.0135 84.7463 34.3495 84.7463H38.4535C38.9655 84.7463 39.3255 84.6343 39.5335 84.4103C39.7575 84.2023 39.8695 83.8503 39.8695 83.3543V81.5303H39.7735C39.5975 81.9623 39.2855 82.2903 38.8375 82.5143C38.3895 82.7383 37.9175 82.8503 37.4215 82.8503ZM39.8695 78.3863V74.0663C39.8695 73.8903 39.7735 73.8023 39.5815 73.8023H37.3255C36.8135 73.8023 36.4535 73.9143 36.2455 74.1383C36.0375 74.3463 35.9335 74.7063 35.9335 75.2183V78.7943C35.9335 79.3063 36.0375 79.6663 36.2455 79.8743C36.4535 80.0823 36.8135 80.1863 37.3255 80.1863H38.2135C39.3175 80.1863 39.8695 79.5863 39.8695 78.3863Z" fill="#F0F8FF"/>
</svg>
