<svg width="76" height="76" viewBox="0 0 76 76" fill="none" xmlns="http://www.w3.org/2000/svg">
<circle cx="38" cy="38" r="38" fill="#25D366"/>
<path d="M14 62L17.374 49.674C15.292 46.066 14.198 41.976 14.2 37.782C14.206 24.67 24.876 14 37.986 14C44.348 14.002 50.32 16.48 54.812 20.976C59.302 25.472 61.774 31.448 61.772 37.804C61.766 50.918 51.096 61.588 37.986 61.588C34.006 61.586 30.084 60.588 26.61 58.692L14 62ZM27.194 54.386C30.546 56.376 33.746 57.568 37.978 57.57C48.874 57.57 57.75 48.702 57.756 37.8C57.76 26.876 48.926 18.02 37.994 18.016C27.09 18.016 18.22 26.884 18.216 37.784C18.214 42.234 19.518 45.566 21.708 49.052L19.71 56.348L27.194 54.386ZM49.968 43.458C49.82 43.21 49.424 43.062 48.828 42.764C48.234 42.466 45.312 41.028 44.766 40.83C44.222 40.632 43.826 40.532 43.428 41.128C43.032 41.722 41.892 43.062 41.546 43.458C41.2 43.854 40.852 43.904 40.258 43.606C39.664 43.308 37.748 42.682 35.478 40.656C33.712 39.08 32.518 37.134 32.172 36.538C31.826 35.944 32.136 35.622 32.432 35.326C32.7 35.06 33.026 34.632 33.324 34.284C33.626 33.94 33.724 33.692 33.924 33.294C34.122 32.898 34.024 32.55 33.874 32.252C33.724 31.956 32.536 29.03 32.042 27.84C31.558 26.682 31.068 26.838 30.704 26.82L29.564 26.8C29.168 26.8 28.524 26.948 27.98 27.544C27.436 28.14 25.9 29.576 25.9 32.502C25.9 35.428 28.03 38.254 28.326 38.65C28.624 39.046 32.516 45.05 38.478 47.624C39.896 48.236 41.004 48.602 41.866 48.876C43.29 49.328 44.586 49.264 45.61 49.112C46.752 48.942 49.126 47.674 49.622 46.286C50.118 44.896 50.118 43.706 49.968 43.458Z" fill="#FAFAF7"/>
</svg>
